<svg width="24" height="24" viewBox="0 0 24 24" fill="none" xmlns="http://www.w3.org/2000/svg">
    <g opacity="0.4">
        <path
            d="M19 11H7.83005L12.71 6.12004C13.1 5.73004 13.1 5.09004 12.71 4.70004C12.6175 4.60733 12.5076 4.53379 12.3867 4.4836C12.2657 4.43342 12.136 4.40759 12.005 4.40759C11.8741 4.40759 11.7444 4.43342 11.6234 4.4836C11.5024 4.53379 11.3926 4.60733 11.3 4.70004L4.71005 11.29C4.61734 11.3826 4.5438 11.4924 4.49361 11.6134C4.44343 11.7344 4.4176 11.8641 4.4176 11.995C4.4176 12.126 4.44343 12.2557 4.49361 12.3767C4.5438 12.4976 4.61734 12.6075 4.71005 12.7L11.3 19.29C11.3926 19.3826 11.5025 19.4561 11.6235 19.5062C11.7445 19.5563 11.8741 19.5821 12.005 19.5821C12.136 19.5821 12.2656 19.5563 12.3866 19.5062C12.5076 19.4561 12.6175 19.3826 12.71 19.29C12.8026 19.1975 12.8761 19.0875 12.9262 18.9666C12.9763 18.8456 13.0021 18.716 13.0021 18.585C13.0021 18.4541 12.9763 18.3245 12.9262 18.2035C12.8761 18.0825 12.8026 17.9726 12.71 17.88L7.83005 13H19C19.55 13 20 12.55 20 12C20 11.45 19.55 11 19 11Z"
            fill="#0300A3" />
    </g>
</svg>