<svg width="16" height="18" viewBox="0 0 16 18" fill="none" xmlns="http://www.w3.org/2000/svg">
    <path
        d="M13.6094 9C13.6094 9.11189 13.5649 9.21919 13.4858 9.29831C13.4067 9.37743 13.2994 9.42188 13.1875 9.42188H0.8125C0.700612 9.42188 0.593306 9.37743 0.514189 9.29831C0.435072 9.21919 0.390625 9.11189 0.390625 9C0.390625 8.88811 0.435072 8.78081 0.514189 8.70169C0.593306 8.62257 0.700612 8.57812 0.8125 8.57812H13.1875C13.2994 8.57812 13.4067 8.62257 13.4858 8.70169C13.5649 8.78081 13.6094 8.88811 13.6094 9ZM0.8125 4.92188H13.1875C13.2994 4.92188 13.4067 4.87743 13.4858 4.79831C13.5649 4.71919 13.6094 4.61189 13.6094 4.5C13.6094 4.38811 13.5649 4.28081 13.4858 4.20169C13.4067 4.12257 13.2994 4.07813 13.1875 4.07812H0.8125C0.700612 4.07813 0.593306 4.12257 0.514189 4.20169C0.435072 4.28081 0.390625 4.38811 0.390625 4.5C0.390625 4.61189 0.435072 4.71919 0.514189 4.79831C0.593306 4.87743 0.700612 4.92188 0.8125 4.92188ZM13.1875 13.0781H0.8125C0.700612 13.0781 0.593306 13.1226 0.514189 13.2017C0.435072 13.2808 0.390625 13.3881 0.390625 13.5C0.390625 13.6119 0.435072 13.7192 0.514189 13.7983C0.593306 13.8774 0.700612 13.9219 0.8125 13.9219H13.1875C13.2994 13.9219 13.4067 13.8774 13.4858 13.7983C13.5649 13.7192 13.6094 13.6119 13.6094 13.5C13.6094 13.3881 13.5649 13.2808 13.4858 13.2017C13.4067 13.1226 13.2994 13.0781 13.1875 13.0781Z"
        fill="black" />
</svg>